<svg width="80" height="80" viewBox="0 0 80 80" fill="none" xmlns="http://www.w3.org/2000/svg">
<g clip-path="url(#clip0_2400_993)">
<path d="M56.6667 34.7666V6.66663H23.3334V34.7666C23.3334 35.9333 23.9334 37.0333 24.9667 37.6333L38.9 46L35.6 53.8L24.2334 54.7666L32.8667 62.2333L30.2334 73.3333L40 67.4333L49.7667 73.3333L47.1667 62.2333L55.8 54.7666L44.4334 53.8L41.1334 46L55.0667 37.6333C56.0667 37.0333 56.6667 35.9666 56.6667 34.7666ZM43.3334 40.7666L40 42.7666L36.6667 40.7666V9.99996H43.3334V40.7666Z" fill="#C93429"/>
</g>
<g clip-path="url(#clip1_2400_993)">
<path d="M39.2 68.7833L49.5 74.9999L46.7667 63.2833L55.8667 55.3999L43.8833 54.3833L39.2 43.3333L34.5167 54.3833L22.5333 55.3999L31.6333 63.2833L28.9 74.9999L39.2 68.7833Z" fill="#EAC845"/>
</g>
<g clip-path="url(#clip2_2400_993)">
<path d="M49.9869 74.8863L47.3221 63.4636L56.194 55.7778L57.0897 55.0019L55.9089 54.9017L44.226 53.9105L39.6604 43.1381L39.2 42.052L38.7396 43.1381L34.174 53.9105L22.4911 54.9017L21.3102 55.0019L22.2059 55.7778L31.0778 63.4636L28.4131 74.8863L28.1439 76.0403L29.1584 75.428L39.2 69.3673L49.2416 75.428L50.2561 76.0403L49.9869 74.8863Z" fill="#CE834D" stroke="#CE834D"/>
</g>
<defs>
<clipPath id="clip0_2400_993">
<rect width="80" height="80" fill="white"/>
</clipPath>
<clipPath id="clip1_2400_993">
<rect width="40" height="40" fill="white" transform="translate(19.2 40)"/>
</clipPath>
<clipPath id="clip2_2400_993">
<rect width="40" height="40" fill="white" transform="translate(19.2 40)"/>
</clipPath>
</defs>
</svg>
